<svg xmlns="http://www.w3.org/2000/svg" width="486.399" height="486.399" viewBox="0 0 486.399 486.399"><path d="M367.101 280.795h118.025c.909-8.185 1.273-16.549 1.273-25.099 0-40.111-10.768-77.733-29.562-110.132 19.439-51.654 18.746-95.494-7.278-121.695C424.812-.77 358.414 3.23 283.354 36.469a222.865 222.865 0 0 0-16.817-.636c-103.024 0-189.463 70.897-213.354 166.425 32.318-41.377 66.318-71.377 111.738-93.224-4.13 3.87-28.227 27.826-32.28 31.882C12.866 260.654-24.905 417.068 15.736 457.717c30.893 30.887 86.879 25.671 151.188-5.824 29.903 15.229 63.75 23.815 99.61 23.815 96.565 0 178.4-62.158 208.044-148.725H355.645c-16.366 30.19-48.373 50.739-85.107 50.739s-68.743-20.549-85.108-50.739a97.227 97.227 0 0 1-11.457-45.828v-.36h193.128zM174.15 222.783c2.728-48.555 43.1-87.292 92.384-87.292 49.282 0 89.655 38.736 92.382 87.292H174.15zM448.482 48.285c16.763 16.94 16.344 48.107 2.006 87.011-24.567-37.454-60.259-66.968-102.396-83.82 45.054-19.319 81.704-21.878 100.39-3.191zM46.741 450.008C25.35 428.611 31.798 383.7 59.355 329.592c17.154 48.136 50.578 88.545 93.668 114.577-47.714 21.66-86.768 25.337-106.282 5.839z"/></svg>