<svg xmlns="http://www.w3.org/2000/svg" viewBox="0 0 502.627 502.627"><path d="M406.181 67.76C365.779 19.894 313.232-2.626 248.628.243 188.769-2.626 138.315 19.98 97.33 67.975s-61.498 107.962-61.498 179.9c0 64.087 15.768 119.459 47.262 166.138 39.949 59.082 96.378 88.613 169.417 88.613 72.823 0 129.187-30.976 169.093-92.905 30.091-46.679 45.191-100.757 45.191-162.234 0-71.917-20.234-131.84-60.614-179.727zm-62.275 317.198c-9.75 33.499-23.383 57.853-40.92 73.125-13.741 11.929-30.868 17.861-51.382 17.861-30.48 0-54.186-13.827-71.076-41.437-24.31-39.561-36.476-100.692-36.476-183.373 0-69.566 7.895-122.932 23.62-160.098C187 45.779 215.15 23.13 252.252 23.13c20.104 0 37.878 6.558 53.301 19.629s28.15 35.57 38.072 67.344c9.966 31.838 14.97 79.769 14.97 143.856-.021 53.862-4.918 97.543-14.689 130.999z" fill="#010002"/></svg>