<svg xmlns="http://www.w3.org/2000/svg" width="512" height="512" viewBox="0 0 512 512"><path d="M256 32c-12.032 0-23.854.896-35.412 2.606-.15-.391-.312-.774-.491-1.148 6.413-5.001 9.775-11.915 8.317-18.776C226.547 5.9 217.217 0 205.197 0a37.8 37.8 0 0 0-7.84.836c-15.084 3.207-25.073 14.311-22.741 25.281 1.417 6.669 7.146 11.669 15.082 13.692-.016.486-.008.975.021 1.467C89.408 70.041 16 162.445 16 272c0 132.549 107.452 240 240 240 132.549 0 240-107.451 240-240 0-132.548-107.451-240-240-240zm-73.559-7.546c-1.353-6.363 6.24-13.595 16.579-15.792A29.797 29.797 0 0 1 205.197 8c8.018 0 14.347 3.432 15.392 8.345.798 3.755-1.535 7.805-5.693 10.952-3.517-2.483-8.008-3.563-12.55-2.598-4.522.961-8.174 3.754-10.379 7.428-5.092-1.225-8.754-4.042-9.526-7.673zm202.252 376.239c-21.984 21.982-48.605 37.639-77.656 46.075l-21.197-34.384-5.373 39.979A184.165 184.165 0 0 1 256 454c-48.614 0-94.318-18.932-128.693-53.307-21.984-21.983-37.639-48.605-46.077-77.654l34.384-21.199-39.98-5.373A184.672 184.672 0 0 1 74 272c0-48.614 18.931-94.318 53.307-128.693 21.984-21.984 48.606-37.639 77.655-46.078l21.198 34.385 5.374-39.98A184.645 184.645 0 0 1 256 90c48.613 0 94.318 18.931 128.693 53.307 21.982 21.984 37.639 48.606 46.076 77.655l-34.385 21.199 39.979 5.373A184.14 184.14 0 0 1 438 272c0 48.614-18.932 94.318-53.307 128.693zm-4.242-253.144l-98.489 74.852c-7.321-3.829-15.438-6.031-23.708-6.363l-25.54-53.59-1.534 59.332a55.374 55.374 0 0 0-17.438 13.475l-31.544-11.182 23.046 24.269a55.4 55.4 0 0 0-5.217 21.412l-53.579 25.533 59.369 1.533c.19.385.387.764.585 1.142l-74.852 98.49 98.489-74.853c7.322 3.827 15.437 6.029 23.708 6.361l25.54 53.591 1.533-59.332a55.355 55.355 0 0 0 17.438-13.476l31.545 11.184-23.047-24.27a55.379 55.379 0 0 0 5.219-21.412l53.578-25.533-59.369-1.535c-.188-.383-.387-.762-.584-1.14l74.851-98.488zm-124.4 74.718v1.724-1.724zm-10.03 2.782a48.2 48.2 0 0 1 10.028-1.059c2.072 0 4.125.135 6.146.398l.047.016-.006-.011a47.82 47.82 0 0 1 12.566 3.448l-35.774 27.188-27.19 35.776a48.132 48.132 0 0 1-2.79-8.826c-5.511-25.93 11.042-51.418 36.973-56.93zm35.04 87.892a47.927 47.927 0 0 1-15.08 6.01 47.943 47.943 0 0 1-16.18.661l-.039-.016.005.01a47.837 47.837 0 0 1-12.566-3.445l35.771-27.188 27.189-35.778a48.011 48.011 0 0 1 2.791 8.829c4.345 20.438-5.028 40.597-21.891 50.917z"/></svg>